<svg width="329" height="48" viewBox="0 0 329 48" fill="none" xmlns="http://www.w3.org/2000/svg">
<g>
<path d="M16.3521 28.7082C16.3521 29.3127 15.7539 29.7239 15.2101 29.4914L1.42704 23.6374C0.967277 23.427 0.670654 22.9595 0.670654 22.4407V20.5636C0.670654 20.0472 0.967277 19.5773 1.42704 19.3669L15.2126 13.5227C15.7564 13.2927 16.3546 13.7038 16.3546 14.3059V28.7058L16.3521 28.7082Z" fill="#895C33"/>
<path d="M46.1601 12.1449L46.1008 12.118L17.8871 0.424785C17.1579 0.123767 16.3521 0.652384 16.3521 1.43552V9.34519C16.3521 10.0084 16.7525 10.6056 17.3705 10.8601L40.5293 20.4608C40.8358 20.5881 41.036 20.8867 41.036 21.2195V21.8533C41.036 22.1862 40.8358 22.4847 40.5293 22.612L17.3729 32.1956C16.755 32.4501 16.3545 33.0497 16.3545 33.713V41.6202C16.3545 42.4033 17.1579 42.9319 17.8871 42.6309L46.0415 30.9793L46.1626 30.9279C49.0127 29.6578 50.8567 27.4332 50.8567 23.6888V19.3889C50.8567 15.5124 49.0176 13.4199 46.1626 12.1498L46.1601 12.1449Z" fill="#895C33"/>
<path d="M71.8823 34.5578V8.89539H81.5473C88.6069 8.89539 91.8994 10.7945 91.8994 17.6763V25.7769C91.8994 31.5109 90.09 34.5578 82.2344 34.5578H71.8823ZM85.9991 17.9626C85.9991 15.1311 85.8532 13.5893 82.1628 13.5893H77.7826V29.8957H81.8736C85.349 29.8957 85.9991 28.929 85.9991 26.4915V17.9626Z" fill="#1D1D1B"/>
<path d="M110.681 29.8976H101.957L100.437 34.5573H93.8843L101.908 11.9883C102.565 10.1357 104.333 8.89734 106.318 8.89734C108.303 8.89734 110.072 10.1381 110.727 11.9932L118.717 34.5573H112.201L110.681 29.8976ZM103.005 25.238H109.593L106.824 15.5564C106.671 15.0376 105.927 15.0376 105.774 15.5564L103.005 25.238Z" fill="#1D1D1B"/>
<path d="M146.69 34.5573V8.89488H156.355C163.415 8.89488 166.708 10.794 166.708 17.6758V25.7764C166.708 31.5104 164.898 34.5573 157.043 34.5573H146.69ZM160.807 17.9621C160.807 15.1306 160.661 13.5888 156.971 13.5888H152.591V29.8952H156.682C160.157 29.8952 160.807 28.9285 160.807 26.491V17.9621Z" fill="#1D1D1B"/>
<path d="M212.148 34.5573L202.554 18.4296V34.5573H196.834V8.89488H202.517L212.219 24.8072V8.89488H217.939V34.5573H212.148Z" fill="#1D1D1B"/>
<path d="M222.695 34.5573V8.89488H240.579L239.818 13.6965H228.595V19.8L239.014 18.8236L238.253 23.6252L228.595 24.6017V29.7532H240.433V34.5548H222.695V34.5573Z" fill="#1D1D1B"/>
<path d="M244.526 34.5573V8.89488H250.427V29.7532H261.177V34.5548H244.524L244.526 34.5573Z" fill="#1D1D1B"/>
<path d="M264.892 34.5573V8.89488H270.792V29.7532H281.543V34.5548H264.89L264.892 34.5573Z" fill="#1D1D1B"/>
<path d="M294.74 34.5573C288.006 34.5573 284.749 31.6548 284.749 25.6687V17.7835C284.749 11.7974 288.006 8.89488 294.74 8.89488H295.607C302.341 8.89488 305.599 11.7974 305.599 17.7835V25.6687C305.599 31.6548 302.341 34.5573 295.607 34.5573H294.74ZM299.698 17.4262C299.698 14.4527 298.504 13.4126 295.427 13.4126H294.92C291.843 13.4126 290.649 14.4527 290.649 17.4262V26.0284C290.649 29.0386 291.808 30.042 294.92 30.042H295.427C298.539 30.042 299.698 29.0386 299.698 26.0284V17.4262Z" fill="#1D1D1B"/>
<path d="M328.537 27.0294C328.537 31.6523 325.279 34.5548 318.509 34.5548C314.782 34.5548 311.341 33.8745 309.17 33.2994L310.619 28.5687C312.176 28.9995 315.325 29.7165 318.474 29.7165C321.406 29.7165 322.637 28.6054 322.637 26.743V26.42C322.637 24.3422 321.661 23.7329 319.199 23.7329H316.519C311.669 23.7329 309.316 20.8304 309.316 16.528V16.3836C309.316 11.4743 312.72 8.89244 317.787 8.89244H318.657C321.661 8.89244 325.717 9.39414 327.887 9.71718L326.656 14.4478C324.194 14.1615 320.249 13.7308 318.403 13.7308H317.75C315.832 13.7308 315.179 14.7341 315.179 16.2392V16.2759C315.179 17.5657 315.723 18.4271 317.533 18.4271H320.754C325.532 18.4271 328.537 20.5416 328.537 25.8449V27.0269V27.0294Z" fill="#1D1D1B"/>
<path d="M185.489 29.8976H176.765L175.245 34.5573H168.692L176.716 11.9883C177.374 10.1357 179.141 8.89734 181.126 8.89734C183.111 8.89734 184.881 10.1381 185.536 11.9932L193.525 34.5573H187.009L185.489 29.8976ZM177.814 25.238H184.401L181.633 15.5564C181.479 15.0376 180.735 15.0376 180.582 15.5564L177.814 25.238Z" fill="#1D1D1B"/>
<path d="M138.182 25.3187C137.841 24.6873 138.081 23.9066 138.714 23.5616C140.795 22.426 141.791 20.5636 141.791 17.8202V16.3861C141.791 9.71962 137.7 8.89488 132.378 8.89488H122.026V34.5573H127.927V13.5913H132.742C135.132 13.5913 135.891 14.3083 135.891 15.8844V16.9392C135.891 20.8108 131.728 19.4452 131.728 23.5151C131.728 24.2492 131.894 24.9736 132.213 25.6344L136.506 34.5573H143.168L138.182 25.3187Z" fill="#1D1D1B"/>
<path d="M113.073 47.6232V41.3238H117.359L117.241 42.036H114.032V43.9547H117.112L116.994 44.6668H114.032V46.911H117.379V47.6232H113.073Z" fill="#1D1D1B"/>
<path d="M130.589 47.6234V42.5281L128.465 46.6543H127.734L125.61 42.5281V47.6234H124.693V41.3241H125.917L128.119 45.6631L130.332 41.3241H131.506V47.6234H130.589Z" fill="#1D1D1B"/>
<path d="M139.055 47.6234V41.3241H141.732C143.262 41.3241 143.845 41.7034 143.845 42.9784V43.6294C143.845 44.738 143.242 45.2128 141.762 45.2128H140.014V47.6234H139.055ZM142.896 42.9858C142.896 42.2736 142.738 42.0264 141.623 42.0264H140.014V44.5178H141.623C142.698 44.5178 142.896 44.3073 142.896 43.6123V42.9882V42.9858Z" fill="#1D1D1B"/>
<path d="M155.102 47.6234L153.681 44.9828H152.062V47.6234H151.103V41.3241H153.701C155.013 41.3241 155.923 41.5884 155.923 43.0127V43.3651C155.923 44.1825 155.547 44.738 154.63 44.9216L156.17 47.6234H155.105H155.102ZM154.964 42.9246C154.964 42.2907 154.628 42.0264 153.701 42.0264H152.062V44.3049H153.869C154.66 44.3049 154.966 44.0234 154.966 43.3896V42.9221L154.964 42.9246Z" fill="#1D1D1B"/>
<path d="M163.422 47.6234V41.3241H167.709L167.59 42.0362H164.381V43.9549H167.461L167.343 44.6671H164.381V46.9112H167.728V47.6234H163.422Z" fill="#1D1D1B"/>
<path d="M175.04 47.6234V41.3241H179.326L179.208 42.0362H175.999V43.9549H179.079L178.961 44.6671H175.999V46.9112H179.346V47.6234H175.04Z" fill="#1D1D1B"/>
<path d="M190.816 47.6234L187.577 42.6529V47.6234H186.66V41.3241H187.619L190.907 46.2945V41.3241H191.824V47.6234H190.818H190.816Z" fill="#1D1D1B"/>
<path d="M199.363 47.6234V41.3241H201.823C203.59 41.3241 204.332 41.7988 204.332 43.4018V45.5652C204.332 46.9039 203.897 47.6234 201.941 47.6234H199.363ZM203.373 43.4973C203.373 42.5477 203.294 42.0289 201.902 42.0289H200.322V46.9308H201.852C203.135 46.9308 203.373 46.6053 203.373 45.7243V43.4973Z" fill="#1D1D1B"/>
<path d="M211.755 47.6234V41.3241H212.714V47.6234H211.755Z" fill="#1D1D1B"/>
<path d="M226.131 47.6234V42.5281L224.008 46.6543H223.276L221.153 42.5281V47.6234H220.236V41.3241H221.459L223.662 45.6631L225.874 41.3241H227.048V47.6234H226.131Z" fill="#1D1D1B"/>
<path d="M234.6 47.6234V41.3241H238.886L238.767 42.0362H235.559V43.9549H238.639L238.52 44.6671H235.559V46.9112H238.906V47.6234H234.6Z" fill="#1D1D1B"/>
<path d="M250.375 47.6234L247.137 42.6529V47.6234H246.22V41.3241H247.179L250.466 46.2945V41.3241H251.383V47.6234H250.377H250.375Z" fill="#1D1D1B"/>
<path d="M260.564 47.6234V42.0362H258.53V41.3241H263.644L263.525 42.0362H261.52V47.6234H260.561H260.564Z" fill="#1D1D1B"/>
<path d="M272.933 47.7017C271.265 47.7017 270.464 47.0067 270.464 45.5995V43.348C270.464 41.9408 271.265 41.2457 272.933 41.2457H273.18C274.849 41.2457 275.65 41.9408 275.65 43.348V45.5995C275.65 47.0067 274.849 47.7017 273.18 47.7017H272.933ZM274.69 43.3455C274.69 42.325 274.275 41.9285 273.141 41.9285H272.973C271.838 41.9285 271.423 42.325 271.423 43.3455V45.597C271.423 46.6176 271.838 47.014 272.973 47.014H273.141C274.275 47.014 274.69 46.6176 274.69 45.597V43.3455Z" fill="#1D1D1B"/>
<path d="M287.623 45.969C287.623 47.0336 286.862 47.7017 285.144 47.7017C284.294 47.7017 283.466 47.5965 282.863 47.4643L283.11 46.7252C283.565 46.8403 284.521 46.9724 285.105 46.9724C286.202 46.9724 286.664 46.6567 286.664 45.925V45.6705C286.664 44.8775 286.328 44.694 285.49 44.694H284.531C283.347 44.694 282.902 44.0968 282.902 43.1448V42.9172C282.902 41.8796 283.574 41.2457 284.838 41.2457H285.045C285.698 41.2457 286.743 41.3241 287.426 41.4219L287.228 42.1439C286.427 42.046 285.549 41.9775 285.105 41.9775H284.917C284.096 41.9775 283.861 42.3568 283.861 42.9466V43.0959C283.861 43.6147 284 43.8962 284.741 43.8962H285.727C286.921 43.8962 287.623 44.344 287.623 45.5236V45.9715V45.969Z" fill="#1D1D1B"/>
</g>
<defs>
<clipPath id="clip0_584_1756">
<rect width="329" height="47.9338" fill="white"/>
</clipPath>
</defs>
</svg>
